<?xml version="1.0" encoding="UTF-8" standalone="no"?>
<svg
   xmlns:dc="http://purl.org/dc/elements/1.1/"
   xmlns:cc="http://creativecommons.org/ns#"
   xmlns:rdf="http://www.w3.org/1999/02/22-rdf-syntax-ns#"
   xmlns:svg="http://www.w3.org/2000/svg"
   xmlns="http://www.w3.org/2000/svg"
   xmlns:sodipodi="http://sodipodi.sourceforge.net/DTD/sodipodi-0.dtd"
   xmlns:inkscape="http://www.inkscape.org/namespaces/inkscape"
   width="24"
   height="24"
   viewBox="0 0 24 24"
   version="1.1"
   id="svg901"
   sodipodi:docname="sharefileblue.svg"
   inkscape:version="0.92.4 5da689c313, 2019-01-14">
  <metadata
     id="metadata907">
    <rdf:RDF>
      <cc:Work
         rdf:about="">
        <dc:format>image/svg+xml</dc:format>
        <dc:type
           rdf:resource="http://purl.org/dc/dcmitype/StillImage" />
        <dc:title></dc:title>
      </cc:Work>
    </rdf:RDF>
  </metadata>
  <defs
     id="defs905" />
  <sodipodi:namedview
     pagecolor="#ffffff"
     bordercolor="#666666"
     borderopacity="1"
     objecttolerance="10"
     gridtolerance="10"
     guidetolerance="10"
     inkscape:pageopacity="0"
     inkscape:pageshadow="2"
     inkscape:window-width="1916"
     inkscape:window-height="997"
     id="namedview903"
     showgrid="false"
     inkscape:zoom="23.747003"
     inkscape:cx="6.8601184"
     inkscape:cy="11.388626"
     inkscape:window-x="0"
     inkscape:window-y="81"
     inkscape:window-maximized="0"
     inkscape:current-layer="svg901" />
  <path
     style="stroke:none;stroke-opacity:1;fill:#44a6c6;fill-opacity:1"
     d="M 4.0097656 2 L 4.0078125 7.4941406 L 4 22 L 20 22 L 20 9.4941406 L 20 8 L 14 2 L 4.0097656 2 z M 13 3.5 L 18.5 9 L 13 9 L 13 3.5 z M 14.369141 12.494141 C 14.919141 12.494141 15.41875 12.719531 15.78125 13.082031 C 16.14375 13.444531 16.369141 13.944141 16.369141 14.494141 C 16.369141 15.044141 16.14375 15.54375 15.78125 15.90625 C 15.41875 16.26875 14.919141 16.494141 14.369141 16.494141 C 13.819141 16.494141 13.317578 16.26875 12.955078 15.90625 C 12.592578 15.54375 12.369141 15.044141 12.369141 14.494141 C 12.369141 13.944141 12.592578 13.444531 12.955078 13.082031 C 13.317578 12.719531 13.819141 12.494141 14.369141 12.494141 z M 14.369141 17.494141 C 15.034141 17.494141 16.033438 17.662343 16.867188 17.996094 C 17.284063 18.162969 17.658594 18.37125 17.929688 18.621094 C 18.200781 18.870938 18.369141 19.161641 18.369141 19.494141 L 18.369141 20.494141 L 10.369141 20.494141 L 10.369141 19.494141 C 10.369141 19.161641 10.535547 18.870938 10.806641 18.621094 C 11.077734 18.37125 11.452266 18.162969 11.869141 17.996094 C 12.702891 17.662343 13.704141 17.494141 14.369141 17.494141 z "
     id="path838" />
</svg>
