<?xml version="1.0" encoding="UTF-8" standalone="no"?>
<svg
   xmlns:dc="http://purl.org/dc/elements/1.1/"
   xmlns:cc="http://creativecommons.org/ns#"
   xmlns:rdf="http://www.w3.org/1999/02/22-rdf-syntax-ns#"
   xmlns:svg="http://www.w3.org/2000/svg"
   xmlns="http://www.w3.org/2000/svg"
   id="svg8"
   version="1.1"
   viewBox="0 0 270.93333 270.93333"
   height="1024"
   width="1024">
  <defs
     id="defs2" />
  <metadata
     id="metadata5">
    <rdf:RDF>
      <cc:Work
         rdf:about="">
        <dc:format>image/svg+xml</dc:format>
        <dc:type
           rdf:resource="http://purl.org/dc/dcmitype/StillImage" />
        <dc:title></dc:title>
      </cc:Work>
    </rdf:RDF>
  </metadata>
  <g
     transform="translate(0,-26.06667)"
     id="layer1">
    <path
       id="path3738"
       d="m 102.99149,32.402006 a 65.603952,65.603952 0 0 0 -65.604224,65.603611 65.603952,65.603952 0 0 0 34.050907,57.437653 53.975158,53.975158 0 0 0 -13.864901,-1.83825 53.975158,53.975158 0 0 0 -53.975335,53.97473 53.975158,53.975158 0 0 0 53.975335,53.97533 53.975158,53.975158 0 0 0 53.150398,-44.62687 78.329805,78.329805 0 0 0 78.10123,73.76477 78.329805,78.329805 0 0 0 78.3298,-78.32981 78.329805,78.329805 0 0 0 -78.3298,-78.3298 78.329805,78.329805 0 0 0 -40.83577,11.60128 65.603952,65.603952 0 0 0 20.60597,-47.629033 65.603952,65.603952 0 0 0 -65.60361,-65.603611 z m 0,21.502299 A 44.101649,44.101649 0 0 1 147.0928,98.005617 44.101649,44.101649 0 0 1 102.99149,142.10753 44.101649,44.101649 0 0 1 58.889566,98.005617 44.101649,44.101649 0 0 1 102.99149,53.904305 Z m 33.10418,100.661235 a 78.329805,78.329805 0 0 0 -24.83144,47.53604 53.975158,53.975158 0 0 0 -26.652297,-41.15854 65.603952,65.603952 0 0 0 18.379557,2.66679 65.603952,65.603952 0 0 0 33.10418,-9.04429 z m 52.72923,1.84786 a 55.949859,55.949859 0 0 1 55.94977,55.94977 55.949859,55.949859 0 0 1 -55.94977,55.94978 55.949859,55.949859 0 0 1 -55.94978,-55.94978 55.949859,55.949859 0 0 1 55.94978,-55.94977 z M 57.573272,174.66815 a 32.911681,32.911681 0 0 1 32.911591,32.9116 32.911681,32.911681 0 0 1 -32.911591,32.9116 32.911681,32.911681 0 0 1 -32.911598,-32.9116 32.911681,32.911681 0 0 1 32.911598,-32.9116 z"
       style="fill:#44a6c6;stroke-width:0.3071757;fill-opacity:1" />
  </g>
</svg>
